HIERARCHY
ROOT Hips
{
	OFFSET -0.001795 -0.223333 0.028219
	CHANNELS 6 Xposition Yposition Zposition Zrotation Yrotation Xrotation 
	JOINT LeftUpLeg
	{
		OFFSET 0.069520 -0.091406 -0.006815
		CHANNELS 3 Zrotation Yrotation Xrotation
		JOINT LeftLeg
		{
			OFFSET 0.034277 -0.375199 -0.004496
			CHANNELS 3 Zrotation Yrotation Xrotation
			JOINT LeftFoot
			{
				OFFSET -0.013596 -0.397961 -0.043693
				CHANNELS 3 Zrotation Yrotation Xrotation
				JOINT LeftToe
				{
					OFFSET 0.026358 -0.055791 0.119288
					CHANNELS 3 Zrotation Yrotation Xrotation
					End Site
					{
						OFFSET 0.000000 0.000000 0.000000
					}
				}
			}
		}
	}
	JOINT RightUpLeg
	{
		OFFSET -0.067670 -0.090522 -0.004320
		CHANNELS 3 Zrotation Yrotation Xrotation
		JOINT RightLeg
		{
			OFFSET -0.038290 -0.382569 -0.008850
			CHANNELS 3 Zrotation Yrotation Xrotation
			JOINT RightFoot
			{
				OFFSET 0.015774 -0.398415 -0.042312
				CHANNELS 3 Zrotation Yrotation Xrotation
				JOINT RightToe
				{
					OFFSET -0.025372 -0.048144 0.123348
					CHANNELS 3 Zrotation Yrotation Xrotation
					End Site
					{
						OFFSET 0.000000 0.000000 0.000000
					}
				}
			}
		}
	}
	JOINT Spine
	{
		OFFSET -0.002533 0.108963 -0.026696
		CHANNELS 3 Zrotation Yrotation Xrotation
		JOINT Spine1
		{
			OFFSET 0.005487 0.135180 0.001092
			CHANNELS 3 Zrotation Yrotation Xrotation
			JOINT Spine2
			{
				OFFSET 0.001457 0.052922 0.025425
				CHANNELS 3 Zrotation Yrotation Xrotation
				JOINT Neck
				{
					OFFSET -0.002778 0.213870 -0.042857
					CHANNELS 3 Zrotation Yrotation Xrotation
					JOINT Head
					{
						OFFSET 0.005152 0.064970 0.051349
						CHANNELS 3 Zrotation Yrotation Xrotation
						End Site
						{
							OFFSET 0.000000 0.000000 0.000000
						}
					}
				}
				JOINT LeftShoulder
				{
					OFFSET 0.078845 0.121749 -0.034090
					CHANNELS 3 Zrotation Yrotation Xrotation
					JOINT LeftArm
					{
						OFFSET 0.090977 0.030469 -0.008868
						CHANNELS 3 Zrotation Yrotation Xrotation
						JOINT LeftForeArm
						{
							OFFSET 0.259612 -0.012772 -0.027456
							CHANNELS 3 Zrotation Yrotation Xrotation
							JOINT LeftHand
							{
								OFFSET 0.249234 0.008986 -0.001171
								CHANNELS 3 Zrotation Yrotation Xrotation
								End Site
								{
									OFFSET 0.000000 0.000000 0.000000
								}
							}
						}
					}
				}
				JOINT RightShoulder
				{
					OFFSET -0.081759 0.118833 -0.038615
					CHANNELS 3 Zrotation Yrotation Xrotation
					JOINT RightArm
					{
						OFFSET -0.096012 0.032551 -0.009143
						CHANNELS 3 Zrotation Yrotation Xrotation
						JOINT RightForeArm
						{
							OFFSET -0.253742 -0.013329 -0.021401
							CHANNELS 3 Zrotation Yrotation Xrotation
							JOINT RightHand
							{
								OFFSET -0.255298 0.007772 -0.005559
								CHANNELS 3 Zrotation Yrotation Xrotation
								End Site
								{
									OFFSET 0.000000 0.000000 0.000000
								}
							}
						}
					}
				}
			}
		}
	}
}
MOTION
Frames: 18
Frame Time: 0.050000
0.000000 0.951936 0.000000 3.001603 3.211868 13.607425 3.959404 -0.898781 -11.935567 -0.589404 0.014483 1.395429 3.868130 11.225178 11.872724 0.000000 0.000000 0.000000 -4.098242 1.448128 -21.412159 -1.746187 0.346456 3.075704 3.139187 2.383840 10.502581 0.000000 0.000000 0.000000 6.960455 -2.052378 15.304213 1.735359 -0.812573 0.122261 -5.666143 0.453566 9.792703 11.103772 -5.737553 -14.504156 0.000000 0.000000 0.000000 -6.958018 -28.979109 11.555631 -51.160702 -37.899332 10.214133 -9.194823 -44.848867 5.643151 0.000000 0.000000 0.000000 7.377740 16.193652 6.888457 62.009023 30.124473 10.413671 -1.965400 32.040725 0.889676 0.000000 0.000000 0.000000 
-0.001030 0.952676 -0.000931 2.855255 3.507273 14.661032 4.323521 -0.922825 -12.398321 0.471307 -0.040183 -0.158328 3.203070 10.369839 12.633258 0.000000 0.000000 0.000000 -3.839505 1.519640 -22.089803 -1.150411 0.245461 2.616234 2.418209 0.644868 11.247713 0.000000 0.000000 0.000000 5.934236 -1.814791 14.618306 2.490412 -1.120742 -0.447779 -6.174049 2.356935 10.221974 13.238349 -6.953107 -14.442697 0.000000 0.000000 0.000000 -8.143611 -27.648680 10.806565 -49.953241 -36.227860 8.958939 -15.667518 -47.506675 8.646121 0.000000 0.000000 0.000000 7.029341 15.394555 6.807574 61.565784 29.753989 10.322610 -0.895734 34.907223 1.460746 0.000000 0.000000 0.000000 
-0.001909 0.953322 -0.002556 2.320048 4.599073 14.141941 5.163375 -0.880095 -12.231864 0.011726 0.008380 -0.296722 2.129820 8.440874 11.367453 0.000000 0.000000 0.000000 -2.695693 1.573736 -20.920630 -2.354144 0.351363 1.700921 2.421181 0.645574 11.625101 0.000000 0.000000 0.000000 6.059547 -1.918416 15.149323 2.499071 -1.164888 0.068927 -6.846883 2.033424 8.868069 12.979252 -7.479509 -11.342255 0.000000 0.000000 0.000000 -8.301011 -26.552789 10.230367 -48.780717 -33.765828 7.697622 -16.116558 -47.543724 8.710640 0.000000 0.000000 0.000000 7.914326 16.111869 7.303139 60.296800 31.013788 10.815588 -0.269856 33.018794 1.503041 0.000000 0.000000 0.000000 
-0.002703 0.953586 -0.004835 2.219530 5.282689 14.358047 5.690703 -0.894191 -12.715298 -0.003352 0.030366 -0.888598 2.159929 8.594239 11.479607 0.000000 0.000000 0.000000 -2.553834 1.593889 -21.347033 -2.192349 0.338259 1.794981 2.991200 1.552759 12.419185 0.000000 0.000000 0.000000 6.132533 -1.928729 14.911774 1.994949 -0.967634 0.515933 -7.426132 2.425066 9.151815 13.945445 -7.658422 -12.939687 0.000000 0.000000 0.000000 -7.528780 -27.096925 10.232428 -48.240935 -32.830361 7.123723 -16.209021 -49.396584 8.994694 0.000000 0.000000 0.000000 5.531575 15.821528 6.927353 62.121358 32.050306 12.184060 -2.062873 34.747279 1.151399 0.000000 0.000000 0.000000 
-0.003090 0.953270 -0.007714 2.146898 6.601518 13.857379 6.082746 -0.872680 -12.307541 -0.240856 0.065255 -1.357634 1.480265 7.703725 11.727401 0.000000 0.000000 0.000000 -2.357221 1.528928 -20.615938 -2.510958 0.349436 1.228495 3.013794 1.675550 12.705394 0.000000 0.000000 0.000000 6.198601 -1.967005 14.947001 1.917286 -0.974761 1.002073 -8.024326 2.208952 8.723312 14.632878 -8.354092 -11.961221 0.000000 0.000000 0.000000 -9.196810 -27.645404 10.567886 -45.813159 -31.431106 6.176322 -14.569961 -49.689206 8.175454 0.000000 0.000000 0.000000 6.569368 16.523781 7.467382 59.339059 33.258450 12.055998 -2.174433 35.202523 1.158800 0.000000 0.000000 0.000000 
-0.003402 0.953192 -0.010494 1.807351 6.692181 13.446520 6.398844 -0.834994 -11.871005 -0.139644 0.062757 -1.526235 1.811100 8.256802 11.789214 0.000000 0.000000 0.000000 -1.906605 1.575872 -20.402278 -2.299571 0.321814 1.178046 3.496856 2.535508 12.900394 0.000000 0.000000 0.000000 6.130806 -1.968823 15.135651 1.204447 -0.634802 0.885137 -7.890586 3.220669 9.134009 15.497780 -8.626690 -12.931014 0.000000 0.000000 0.000000 -9.463750 -28.386115 10.738021 -44.498518 -30.725473 5.644691 -12.502515 -50.406070 7.172344 0.000000 0.000000 0.000000 5.561304 17.079396 7.665227 57.855805 35.115191 12.777442 -4.412546 37.344648 0.638242 0.000000 0.000000 0.000000 
-0.003449 0.952658 -0.012863 1.764547 6.715807 13.160381 6.652150 -0.825692 -11.973199 -0.455788 0.093260 -1.722959 1.748034 8.315752 12.324399 0.000000 0.000000 0.000000 -1.858794 1.551526 -19.905038 -2.251563 0.279708 0.516366 3.340698 2.121860 13.180839 0.000000 0.000000 0.000000 5.741469 -1.836182 14.705168 0.578136 -0.342556 0.869248 -7.887173 3.181095 9.135679 15.192305 -8.458738 -12.811791 0.000000 0.000000 0.000000 -9.885188 -27.355166 10.290268 -44.098790 -29.644165 5.195574 -11.314005 -51.139013 6.682118 0.000000 0.000000 0.000000 5.767031 17.467174 7.873536 56.843406 36.398719 13.130842 -5.725178 39.148329 0.293746 0.000000 0.000000 0.000000 
-0.003449 0.952878 -0.014277 1.310130 5.924032 12.853144 6.746915 -0.796477 -11.853845 -0.309995 0.083881 -1.756383 1.869052 8.308841 11.964856 0.000000 0.000000 0.000000 -1.445141 1.599019 -19.386710 -2.008313 0.221211 -0.003933 3.199402 1.701208 13.219959 0.000000 0.000000 0.000000 5.446012 -1.681927 14.028518 -0.323246 0.111272 0.227886 -7.417494 3.555143 9.592678 14.303823 -8.161060 -11.835521 0.000000 0.000000 0.000000 -9.356223 -26.205987 9.713886 -44.417350 -28.725199 4.843988 -10.571761 -52.129365 6.443309 0.000000 0.000000 0.000000 5.253325 17.364950 7.711278 57.001731 37.018899 13.516366 -5.910512 42.555409 0.362374 0.000000 0.000000 0.000000 
-0.003567 0.953164 -0.014292 0.976394 5.757444 12.338886 6.787463 -0.761530 -11.329506 -0.104551 0.072711 -1.899664 1.676649 7.978789 11.965027 0.000000 0.000000 0.000000 -0.884519 1.601743 -18.372694 -2.049128 0.173291 -0.940100 3.095193 1.209717 13.872480 0.000000 0.000000 0.000000 5.095637 -1.531329 13.321924 -0.868613 0.387966 -0.434444 -6.925357 3.708791 10.091962 13.285053 -7.567824 -11.516345 0.000000 0.000000 0.000000 -9.188244 -24.833313 9.062624 -44.605970 -27.728075 4.446835 -10.556427 -52.864164 6.500220 0.000000 0.000000 0.000000 4.485590 16.771884 7.281137 58.142413 36.681789 13.754422 -5.553397 47.463285 0.720273 0.000000 0.000000 0.000000 
-0.003732 0.953500 -0.012765 0.881761 5.306268 11.902987 6.642834 -0.735868 -10.943647 -0.090718 0.062990 -1.632467 1.839615 8.173193 11.904796 0.000000 0.000000 0.000000 -0.684741 1.575899 -17.601069 -1.904518 0.142550 -1.210472 2.965697 1.047110 13.461459 0.000000 0.000000 0.000000 4.655089 -1.342318 12.361232 -1.309128 0.627506 -1.682552 -6.900117 3.991054 10.989080 12.825409 -7.291129 -11.498731 0.000000 0.000000 0.000000 -8.064406 -23.223169 8.247161 -45.348220 -26.041232 3.786426 -12.810260 -54.640292 7.843352 0.000000 0.000000 0.000000 4.474271 15.814701 6.861780 59.671897 35.501103 13.516622 -2.159598 54.775727 2.888643 0.000000 0.000000 0.000000 
-0.003864 0.953433 -0.009819 0.501273 5.285556 11.174205 6.868436 -0.690242 -10.297231 -0.251172 0.074226 -1.579460 1.882326 8.230633 11.891414 0.000000 0.000000 0.000000 -0.413033 1.498562 -16.251625 -1.796686 0.104410 -1.720564 3.234749 1.657732 13.202729 0.000000 0.000000 0.000000 4.523682 -1.200070 11.215540 -1.901161 0.901768 -2.178121 -6.559886 4.552520 11.075476 12.320250 -6.982606 -11.232266 0.000000 0.000000 0.000000 -8.239492 -21.909736 7.582630 -45.062753 -23.954811 2.978217 -17.711732 -56.298427 10.560579 0.000000 0.000000 0.000000 5.386847 14.428889 6.450296 60.222421 32.934145 12.154639 6.414531 63.430497 9.182763 0.000000 0.000000 0.000000 
-0.003569 0.953362 -0.006097 0.184734 4.606445 10.505326 7.004339 -0.640620 -9.687189 -0.296207 0.069305 -1.291469 1.764044 7.955582 11.879265 0.000000 0.000000 0.000000 -0.406303 1.407146 -15.009570 -1.455379 0.046127 -2.183842 3.293921 1.827220 12.795547 0.000000 0.000000 0.000000 4.541317 -1.069509 9.983852 -2.518823 1.183777 -2.952243 -6.399176 5.381535 11.360712 11.868894 -6.712363 -10.970020 0.000000 0.000000 0.000000 -7.778012 -20.089268 6.708023 -45.359010 -21.861376 2.182541 -24.675295 -56.478401 14.211140 0.000000 0.000000 0.000000 5.166181 12.587974 5.642877 61.379968 30.335264 11.018214 28.022794 70.763889 26.747615 0.000000 0.000000 0.000000 
-0.002970 0.953149 -0.002109 -0.011783 4.513163 10.035052 6.884746 -0.617004 -9.183059 -0.282114 0.068869 -1.312413 1.603022 7.536803 11.374454 0.000000 0.000000 0.000000 -0.436940 1.329767 -14.113655 -1.514666 0.036934 -2.456230 3.676823 2.656265 12.566391 0.000000 0.000000 0.000000 4.337155 -0.912166 8.607521 -3.012672 1.401769 -3.493037 -5.946568 5.869345 11.419912 11.469683 -6.518077 -10.546100 0.000000 0.000000 0.000000 -7.626658 -18.784255 6.092927 -45.066999 -19.629723 1.336357 -32.694000 -56.123013 18.347668 0.000000 0.000000 0.000000 4.836186 11.331860 5.065790 59.948380 28.744559 9.761238 61.332935 72.301553 54.749837 0.000000 0.000000 0.000000 
-0.001981 0.952944 0.001849 -0.197031 4.036806 9.361424 6.827767 -0.575126 -8.496461 -0.225426 0.056910 -1.081757 1.278411 7.013911 11.573958 0.000000 0.000000 0.000000 -0.396100 1.239772 -12.989199 -1.474370 0.001959 -3.027313 3.682137 2.510013 12.739165 0.000000 0.000000 0.000000 4.308631 -0.773567 7.206746 -3.448804 1.590536 -3.837064 -5.842263 7.024657 11.543035 11.139977 -6.119915 -10.897117 0.000000 0.000000 0.000000 -6.721199 -17.175227 5.312129 -45.655692 -18.238799 0.788790 -39.586072 -55.096172 21.412138 0.000000 0.000000 0.000000 3.792280 9.827664 4.334080 59.086860 27.626689 9.099589 86.910792 69.347439 75.835618 0.000000 0.000000 0.000000 
-0.000822 0.952688 0.005662 -0.081989 4.500848 8.830175 6.603624 -0.551441 -7.716438 -0.222137 0.071121 -1.535388 1.379011 7.239340 11.607462 0.000000 0.000000 0.000000 -0.796427 1.107524 -11.842042 -1.477508 -0.033192 -3.714397 3.673873 2.471717 12.954519 0.000000 0.000000 0.000000 4.383018 -0.680858 6.103163 -4.013400 1.833896 -4.313966 -5.652896 7.745529 11.825150 11.150741 -6.115544 -10.695085 0.000000 0.000000 0.000000 -6.504319 -16.243747 4.820441 -45.639011 -16.334539 0.069222 -46.619316 -54.026088 24.436415 0.000000 0.000000 0.000000 2.469599 8.800401 3.765717 57.104721 27.184714 8.590311 101.820099 65.171650 87.091547 0.000000 0.000000 0.000000 
0.000224 0.952520 0.009014 -0.027505 4.871888 8.063468 6.612337 -0.510963 -6.805172 -0.070395 0.061246 -1.619897 0.872751 6.545250 11.878549 0.000000 0.000000 0.000000 -1.096708 0.968428 -10.464711 -1.439567 -0.074711 -4.453549 3.566707 2.165101 13.317018 0.000000 0.000000 0.000000 4.416021 -0.602469 5.285188 -4.424800 2.014358 -4.411664 -5.547078 8.991272 11.680091 11.607139 -6.118880 -11.442609 0.000000 0.000000 0.000000 -6.325436 -15.192238 4.224850 -45.958017 -14.670070 -0.532719 -52.723243 -53.474627 26.963956 0.000000 0.000000 0.000000 1.905118 7.687547 3.295363 55.493850 26.617752 8.133134 109.993530 61.808364 93.274217 0.000000 0.000000 0.000000 
0.001052 0.952238 0.011591 0.042399 5.425251 7.518967 6.479255 -0.479260 -5.929290 -0.045926 0.075417 -2.108736 0.690123 6.287249 11.802462 0.000000 0.000000 0.000000 -1.286050 0.872290 -9.481313 -1.428776 -0.082694 -4.615919 3.521935 2.119607 13.424991 0.000000 0.000000 0.000000 4.359185 -0.511755 4.346923 -4.834817 2.192139 -4.549546 -5.539438 9.895354 11.693515 11.713663 -6.116673 -11.366880 0.000000 0.000000 0.000000 -5.965554 -14.268372 3.750732 -46.456028 -13.144975 -1.135654 -57.567216 -54.005967 29.535044 0.000000 0.000000 0.000000 1.641828 7.098643 3.061760 53.856120 26.941420 8.074652 114.685350 60.635968 98.158071 0.000000 0.000000 0.000000 
0.001595 0.952154 0.013334 -0.066364 5.628624 7.182890 6.510455 -0.461948 -5.528011 0.175443 0.064219 -2.281092 0.493569 5.957338 11.697980 0.000000 0.000000 0.000000 -1.326262 0.809079 -8.755578 -1.230463 -0.108427 -4.842916 3.190137 1.403581 13.704068 0.000000 0.000000 0.000000 4.549607 -0.443585 3.426570 -5.374328 2.420421 -4.546742 -5.451227 11.243368 11.541572 11.985009 -6.247021 -11.167762 0.000000 0.000000 0.000000 -5.418657 -13.554303 3.378241 -47.649846 -12.806410 -1.374765 -59.162662 -54.565433 30.221921 0.000000 0.000000 0.000000 1.929814 6.313931 2.844635 53.095478 26.702629 7.921995 116.271276 60.175177 100.388315 0.000000 0.000000 0.000000 
